
<svg mexport="1" xmlns="http://www.w3.org/2000/svg" xmlns:xlink="http://www.w3.org/1999/xlink" width="1026" height="172" viewBox="0 0 1026 172">
	<defs>
		<linearGradient id="linearGradient0:0:0" gradientTransform="matrix(632.994 863.112 -783.012 574.249 541.288 -188.009)" gradientUnits="userSpaceOnUse" x1="0" y1="0.5" x2="1" y2="0.5">
			<stop offset="0" stop-color="rgb(255, 211, 136)" stop-opacity="0.030000001"/>
			<stop offset="0.69100261" stop-color="rgb(255, 220, 157)" stop-opacity="0"/>
		</linearGradient>
	</defs>
	<path d="M368.873 596.406Q367.24 594.012 365.598 591.589Q361.703 585.835 357.741 579.883Q352.48 571.454 347.102 562.62Q342.298 554.181 337.402 545.369Q333.006 536.87 328.537 528.024Q324.606 519.624 320.62 510.906Q316.964 502.222 313.263 493.216Q310.072 484.72 306.852 475.938Q304.11 467.679 301.348 459.154Q298.836 450.491 296.313 441.552Q294.306 433.484 292.3 425.194Q290.551 416.821 288.811 408.217Q287.448 400.179 286.099 391.932Q285.057 383.981 284.035 375.841Q283.318 368.134 282.625 360.245Q282.204 352.679 281.812 344.945Q281.721 339.949 281.644 334.893Q281.61 332.664 281.577 330.489Q281.611 328.639 281.648 326.772Q282.073 305.222 282.275 291.461Q282.537 273.521 282.569 259.799Q282.606 244.172 282.358 231.427Q282.09 217.628 281.467 205.989Q280.81 193.709 279.722 183.126Q278.592 172.135 276.948 162.48Q275.261 152.571 272.971 143.695Q270.643 134.674 267.614 126.416Q264.562 118.095 260.704 110.291Q256.848 102.49 252.07 94.9688Q247.331 87.5103 241.539 80.0957Q235.845 72.806 228.944 65.3173Q222.225 58.0268 214.112 50.2765Q206.31 42.8236 196.871 34.6155Q187.947 26.8552 177.048 17.976Q167.015 9.80272 154.468 0L153.852 0.788012Q166.391 10.5845 176.416 18.7513Q187.303 27.6203 196.215 35.3701Q205.636 43.5629 213.421 50.9997Q221.512 58.7279 228.209 65.995Q235.082 73.4537 240.751 80.7113Q246.513 88.0875 251.226 95.5051Q255.975 102.981 259.808 110.735Q263.642 118.49 266.675 126.761Q269.687 134.972 272.002 143.945Q274.283 152.781 275.962 162.648Q277.601 172.27 278.727 183.228Q279.813 193.787 280.468 206.042Q281.09 217.664 281.358 231.447Q281.605 244.182 281.569 259.796Q281.537 273.511 281.275 291.446Q281.201 296.483 281.097 302.561Q281.068 301.031 281.038 299.582Q280.674 281.644 280.228 267.929Q279.719 252.311 279.026 239.582Q278.277 225.8 277.248 214.19Q276.163 201.941 274.706 191.402Q273.194 180.457 271.214 170.865Q269.182 161.022 266.583 152.231Q263.942 143.296 260.627 135.15Q257.286 126.94 253.158 119.276Q249.032 111.614 243.994 104.264Q238.998 96.9752 232.951 89.7672Q227.006 82.6807 219.848 75.4373Q212.879 68.3857 204.5 60.9234Q196.443 53.7473 186.723 45.8736Q177.534 38.4295 166.331 29.9361Q156.019 22.1179 143.138 12.759L142.55 13.568Q155.423 22.9209 165.727 30.7329Q176.917 39.2166 186.094 46.6506Q195.795 54.5096 203.835 61.6702Q212.19 69.1114 219.137 76.1403Q226.266 83.3546 232.185 90.4099Q238.201 97.5806 243.169 104.829Q248.177 112.135 252.278 119.75Q256.38 127.367 259.7 135.526Q262.997 143.627 265.624 152.514Q268.211 161.265 270.234 171.067Q272.207 180.627 273.716 191.539Q275.169 202.053 276.252 214.278Q277.279 225.872 278.028 239.636Q278.719 252.355 279.228 267.961Q279.675 281.669 280.038 299.602Q280.187 306.94 280.35 316.48Q280.106 311.9 279.887 307.948Q278.898 290.034 277.973 276.342Q276.919 260.751 275.783 248.055Q274.553 234.308 273.12 222.74Q271.607 210.536 269.784 200.054Q267.89 189.169 265.577 179.652Q263.203 169.886 260.299 161.191Q257.347 152.354 253.75 144.328Q250.125 136.24 245.732 128.724Q241.341 121.211 236.049 114.041Q230.802 106.932 224.507 99.9391Q218.319 93.0644 210.912 86.0753Q203.701 79.2712 195.067 72.1058Q186.764 65.2153 176.775 57.6856Q167.332 50.5667 155.84 42.4694Q145.261 35.0159 132.061 26.1123L131.502 26.9413Q144.693 35.8393 155.264 43.2869Q166.743 51.3749 176.174 58.4841Q186.143 65.9998 194.428 72.8753Q203.038 80.0204 210.225 86.8026Q217.603 93.7637 223.764 100.608Q230.026 107.564 235.245 114.635Q240.504 121.762 244.869 129.229Q249.234 136.698 252.837 144.737Q256.414 152.718 259.35 161.508Q262.241 170.163 264.605 179.889Q266.911 189.373 268.799 200.226Q270.618 210.683 272.127 222.863Q273.558 234.414 274.787 248.144Q275.922 260.831 276.975 276.409Q277.9 290.093 278.889 308.003Q279.421 317.639 280.111 331.106Q279.401 322.983 278.822 316.565Q277.208 298.696 275.805 285.045Q274.208 269.5 272.629 256.851Q270.92 243.155 269.084 231.645Q267.147 219.501 264.959 209.09Q262.687 198.277 260.042 188.847Q257.329 179.169 254.123 170.581Q250.865 161.852 246.99 153.957Q243.085 146 238.432 138.642Q233.781 131.287 228.243 124.306Q222.751 117.384 216.216 110.615Q209.791 103.961 202.145 97.2344Q194.701 90.6861 185.822 83.8264Q177.284 77.2299 167.039 70.0534Q157.353 63.2684 145.585 55.5771Q134.752 48.4973 121.249 40.0598L120.719 40.9079Q134.214 49.34 145.037 56.4142Q156.792 64.0966 166.465 70.8724Q176.691 78.0355 185.211 84.6178Q194.065 91.458 201.484 97.9852Q209.1 104.685 215.497 111.31Q221.998 118.043 227.46 124.928Q232.965 131.866 237.587 139.177Q242.211 146.489 246.092 154.397Q249.945 162.248 253.186 170.93Q256.377 179.479 259.08 189.117Q261.715 198.515 263.98 209.295Q266.164 219.683 268.097 231.803Q269.93 243.296 271.637 256.975Q273.214 269.615 274.81 285.147Q276.212 298.79 277.826 316.655Q278.871 328.22 280.336 345.312L280.333 345.508Q278.925 333.953 277.853 325.423Q275.616 307.622 273.738 294.028Q271.599 278.549 269.58 265.962Q267.394 252.334 265.158 240.895Q262.798 228.826 260.248 218.497Q257.599 207.771 254.628 198.438Q251.578 188.861 248.074 180.39Q244.514 171.781 240.365 164.025Q236.185 156.21 231.279 149.019Q226.374 141.83 220.595 135.047Q214.865 128.321 208.098 121.784Q201.445 115.358 193.568 108.903Q185.9 102.618 176.787 96.0724Q168.024 89.7778 157.535 82.9633Q147.618 76.5204 135.589 69.2446Q124.516 62.5471 110.727 54.586L110.227 55.452Q124.007 63.4081 135.071 70.1002Q147.086 77.3677 156.99 83.8018Q167.46 90.6037 176.204 96.8846Q185.291 103.412 192.934 109.676Q200.779 116.105 207.403 122.504Q214.135 129.006 219.834 135.696Q225.578 142.438 230.453 149.582Q235.329 156.729 239.483 164.497Q243.609 172.209 247.15 180.772Q250.638 189.205 253.675 198.742Q256.636 208.043 259.277 218.737Q261.822 229.042 264.176 241.087Q266.409 252.51 268.593 266.121Q270.61 278.697 272.747 294.165Q274.625 307.75 276.861 325.548Q278.263 336.705 280.239 353.026Q280.229 353.918 280.219 354.854Q278.375 343.14 276.985 334.519Q274.128 316.806 271.777 303.286Q269.099 287.891 266.642 275.383Q263.982 261.839 261.347 250.485Q258.568 238.506 255.659 228.272Q252.638 217.645 249.342 208.422Q245.96 198.957 242.163 190.613Q238.304 182.133 233.887 174.527Q229.437 166.863 224.282 159.847Q219.13 152.834 213.118 146.257Q207.157 139.734 200.165 133.438Q193.292 127.248 185.195 121.071Q177.312 115.058 167.977 108.835Q158.999 102.85 148.278 96.4055Q138.142 90.3127 125.867 83.4611Q114.567 77.1541 100.508 69.6791L100.039 70.562Q114.088 78.0323 125.379 84.3343Q137.641 91.178 147.763 97.2626Q158.464 103.695 167.422 109.667Q176.731 115.873 184.588 121.867Q192.653 128.018 199.496 134.181Q206.451 140.445 212.38 146.931Q218.356 153.469 223.477 160.439Q228.599 167.411 233.022 175.029Q237.414 182.593 241.253 191.027Q245.033 199.333 248.4 208.758Q251.685 217.95 254.697 228.546Q257.599 238.756 260.373 250.711Q263.004 262.049 265.661 275.575Q268.116 288.074 270.792 303.457Q273.142 316.969 275.998 334.678Q277.727 345.403 280.162 360.928Q280.149 362.398 280.138 363.882Q277.909 352.362 276.233 343.866Q272.76 326.264 269.939 312.835Q266.725 297.542 263.833 285.127Q260.702 271.685 257.673 260.43Q254.477 248.555 251.212 238.429Q247.822 227.913 244.207 218.811Q240.497 209.47 236.41 201.264Q232.258 192.924 227.578 185.476Q222.863 177.972 217.467 171.141Q212.073 164.311 205.835 157.948Q199.65 151.638 192.443 145.589Q185.358 139.643 177.05 133.752Q168.963 128.018 159.415 122.124Q150.234 116.456 139.295 110.39Q128.953 104.655 116.445 98.2355Q104.932 92.3268 90.6215 85.347L90.1832 86.2457Q104.485 93.2211 115.989 99.1252Q128.482 105.537 138.81 111.264Q149.729 117.319 158.89 122.975Q168.41 128.852 176.472 134.568Q184.746 140.435 191.8 146.355Q198.97 152.372 205.121 158.648Q211.321 164.973 216.683 171.76Q222.045 178.549 226.732 186.008Q231.385 193.414 235.515 201.709Q239.583 209.878 243.277 219.18Q246.88 228.252 250.261 238.736Q253.518 248.838 256.707 260.69Q259.732 271.929 262.859 285.354Q265.749 297.759 268.96 313.04Q271.78 326.462 275.252 344.06Q277.275 354.311 280.105 368.983Q280.095 370.931 280.087 372.855Q277.52 361.693 275.588 353.431Q271.502 335.961 268.214 322.637Q264.469 307.467 261.145 295.16Q257.546 281.836 254.126 270.693Q250.518 258.937 246.902 248.931Q243.147 238.54 239.216 229.569Q235.182 220.363 230.812 212.305Q226.371 204.115 221.435 196.835Q216.46 189.5 210.829 182.861Q205.2 176.224 198.744 170.082Q192.342 163.992 184.929 158.199Q177.64 152.503 169.132 146.906Q160.849 141.458 151.102 135.9Q141.729 130.556 130.585 124.876Q120.048 119.505 107.325 113.526Q95.6124 108.023 81.0667 101.547L80.6599 102.46Q95.1964 108.932 106.899 114.431Q119.609 120.403 130.13 125.767Q141.254 131.437 150.607 136.769Q160.326 142.311 168.583 147.742Q177.056 153.316 184.313 158.987Q191.688 164.75 198.055 170.807Q204.472 176.912 210.067 183.508Q215.663 190.106 220.607 197.396Q225.516 204.635 229.933 212.781Q234.283 220.803 238.3 229.971Q242.218 238.911 245.962 249.271Q249.57 259.253 253.17 270.986Q256.585 282.113 260.18 295.421Q263.501 307.718 267.243 322.877Q270.53 336.192 274.614 353.658Q276.899 363.43 280.072 377.258Q280.067 379.503 280.065 381.745Q277.236 371.156 275.091 363.239Q270.399 345.923 266.647 332.722Q262.375 317.692 258.624 305.508Q254.562 292.318 250.756 281.301Q246.739 269.678 242.776 259.804Q238.661 249.551 234.419 240.723Q230.067 231.663 225.418 223.762Q220.694 215.732 215.506 208.629Q210.279 201.472 204.42 195.034Q198.562 188.598 191.896 182.685Q185.285 176.821 177.674 171.29Q170.191 165.853 161.493 160.556Q153.025 155.4 143.09 150.186Q133.536 145.173 122.2 139.884Q111.483 134.884 98.5583 129.353Q86.6611 124.262 71.8982 118.298L71.5236 119.225Q86.2771 125.186 98.1649 130.273Q111.075 135.797 121.777 140.79Q133.092 146.069 142.625 151.072Q152.532 156.271 160.973 161.41Q169.636 166.686 177.086 172.099Q184.658 177.602 191.232 183.433Q197.859 189.31 203.68 195.707Q209.503 202.105 214.699 209.219Q219.857 216.282 224.556 224.269Q229.183 232.134 233.518 241.156Q237.745 249.954 241.848 260.177Q245.802 270.027 249.811 281.628Q253.612 292.628 257.668 305.803Q261.416 317.976 265.685 332.996Q269.435 346.188 274.126 363.501Q276.629 372.738 280.066 385.624Q280.068 388.203 280.076 390.757Q277.034 380.786 274.711 373.262Q269.417 356.12 265.207 343.058Q260.412 328.186 256.238 316.141Q251.719 303.1 247.53 292.223Q243.111 280.747 238.805 271.018Q234.335 260.914 229.788 252.24Q225.121 243.338 220.2 235.603Q215.198 227.743 209.766 220.826Q204.292 213.855 198.212 207.625Q192.133 201.398 185.265 195.721Q178.453 190.092 170.654 184.83Q162.986 179.657 154.108 174.667Q145.465 169.809 135.354 164.946Q125.631 160.268 114.118 155.379Q103.232 150.756 90.1226 145.68Q78.055 141.007 63.0929 135.561L62.7509 136.501Q77.7034 141.943 89.7615 146.612Q102.856 151.683 113.727 156.299Q125.218 161.18 134.921 165.847Q145.003 170.697 153.618 175.539Q162.46 180.508 170.094 185.659Q177.854 190.894 184.627 196.492Q191.455 202.134 197.496 208.324Q203.539 214.515 208.979 221.443Q214.381 228.322 219.356 236.14Q224.255 243.839 228.902 252.704Q233.433 261.349 237.891 271.423Q242.186 281.129 246.597 292.582Q250.78 303.444 255.294 316.468Q259.464 328.504 264.255 343.365Q268.462 356.419 273.755 373.557Q276.443 382.259 280.088 394.228Q280.1 397.026 280.119 399.807Q276.944 390.57 274.49 383.508Q268.601 366.56 263.937 353.654Q258.627 338.958 254.035 327.066Q249.063 314.191 244.498 303.466Q239.68 292.152 235.038 282.579Q230.218 272.637 225.37 264.127Q220.396 255.393 215.208 247.835Q209.935 240.154 204.265 233.431Q198.551 226.655 192.257 220.642Q185.965 214.63 178.902 209.196Q171.898 203.808 163.92 198.822Q156.076 193.919 147.03 189.242Q138.223 184.689 127.948 180.181Q118.067 175.846 106.391 171.362Q95.3507 167.121 82.0716 162.506Q69.8483 158.257 54.7053 153.336L54.3963 154.288Q69.5296 159.205 81.7433 163.45Q95.0071 168.061 106.032 172.295Q117.687 176.772 127.546 181.097Q137.792 185.592 146.57 190.131Q155.581 194.789 163.39 199.67Q171.327 204.63 178.292 209.989Q185.312 215.39 191.566 221.365Q197.821 227.341 203.5 234.075Q209.139 240.761 214.383 248.401Q219.548 255.924 224.502 264.622Q229.332 273.103 234.138 283.015Q238.77 292.566 243.577 303.858Q248.137 314.567 253.102 327.426Q257.691 339.309 262.997 353.994Q267.658 366.892 273.545 383.836Q276.365 391.952 280.142 402.952Q280.167 405.976 280.199 408.97Q276.958 400.519 274.423 393.969Q267.946 377.238 262.835 364.502Q257.015 350 252.011 338.276Q246.593 325.582 241.656 315.024Q236.446 303.884 231.473 294.479Q226.308 284.712 221.167 276.375Q215.891 267.82 210.442 260.448Q204.904 252.956 199.003 246.435Q193.056 239.863 186.556 234.072Q180.058 228.284 172.81 223.1Q165.623 217.96 157.475 213.255Q149.465 208.629 140.261 204.271Q131.3 200.028 120.874 195.881Q110.848 191.894 99.0222 187.819Q87.8411 183.967 74.4091 179.817Q62.0449 175.997 46.7394 171.609L46.4637 172.57Q61.7595 176.956 74.1139 180.773Q87.5305 184.917 98.6965 188.765Q110.501 192.832 120.505 196.81Q130.901 200.945 139.833 205.174Q149 209.515 156.975 214.121Q165.08 218.801 172.228 223.913Q179.432 229.066 185.891 234.819Q192.351 240.574 198.261 247.106Q204.13 253.59 209.638 261.043Q215.062 268.381 220.316 276.9Q225.439 285.208 230.589 294.946Q235.551 304.329 240.75 315.447Q245.68 325.99 251.091 338.668Q256.091 350.384 261.907 364.875Q267.015 377.603 273.49 394.33Q276.397 401.839 280.232 411.849Q280.27 415.086 280.319 418.296Q277.078 410.658 274.504 404.641Q267.447 388.146 261.895 375.596Q255.572 361.306 250.162 349.764Q244.304 337.267 239.002 326.887Q233.407 315.936 228.108 306.71Q222.606 297.129 217.177 288.977Q211.606 280.612 205.903 273.434Q200.107 266.14 193.981 259.828Q187.809 253.468 181.11 247.908Q174.414 242.35 166.99 237.422Q159.628 232.536 151.321 228.118Q143.154 223.774 133.803 219.74Q124.7 215.813 114.136 212.032Q103.977 208.397 92.0158 204.738Q80.7071 201.278 67.1384 197.6Q54.6484 194.214 39.1991 190.362L38.9572 191.332Q54.3966 195.182 66.8767 198.565Q80.4298 202.239 91.7233 205.694Q103.662 209.347 113.799 212.974Q124.333 216.743 133.407 220.658Q142.72 224.676 150.851 229.001Q159.115 233.396 166.437 238.255Q173.817 243.153 180.472 248.677Q187.129 254.203 193.264 260.525Q199.355 266.801 205.12 274.056Q210.797 281.201 216.345 289.532Q221.755 297.656 227.241 307.208Q232.527 316.412 238.111 327.342Q243.406 337.706 249.257 350.188Q254.663 361.722 260.98 376.001Q266.529 388.543 273.585 405.034Q276.533 411.926 280.36 420.955Q280.416 424.372 280.482 427.745Q277.313 420.95 274.759 415.513Q267.131 399.275 261.144 386.926Q254.327 372.866 248.517 361.519Q242.227 349.234 236.565 339.046Q230.591 328.297 224.974 319.261Q219.141 309.878 213.431 301.921Q207.571 293.755 201.621 286.781Q195.574 279.693 189.232 273.599Q182.841 267.458 175.953 262.135Q169.067 256.814 161.475 252.149Q153.947 247.522 145.491 243.397Q137.177 239.341 127.691 235.635Q118.457 232.028 107.767 228.619Q97.4875 225.34 85.4058 222.101Q73.9833 219.038 60.2945 215.835Q47.6939 212.887 32.1196 209.577L31.9117 210.555Q47.4761 213.863 60.0667 216.809Q73.7397 220.008 85.1468 223.067Q97.206 226.3 107.463 229.572Q118.123 232.971 127.328 236.567Q136.775 240.258 145.052 244.296Q153.464 248.399 160.951 253Q168.497 257.638 175.341 262.926Q182.187 268.216 188.539 274.32Q194.845 280.38 200.86 287.43Q206.783 294.372 212.618 302.504Q218.309 310.434 224.125 319.789Q229.729 328.803 235.691 339.531Q241.345 349.705 247.627 361.975Q253.432 373.313 260.245 387.363Q266.228 399.703 273.854 415.938Q276.789 422.185 280.532 430.218Q280.606 433.807 280.693 437.352Q277.672 431.425 275.188 426.584Q266.997 410.622 260.583 398.49Q253.279 384.676 247.077 373.539Q240.362 361.481 234.348 351.496Q228.003 340.962 222.074 332.129Q215.916 322.955 209.932 315.201Q203.791 307.245 197.601 300.483Q191.31 293.611 184.76 287.742Q178.158 281.827 171.089 276.748Q164.021 271.67 156.271 267.273Q148.586 262.912 139.991 259.084Q131.541 255.321 121.932 251.949Q112.577 248.666 101.775 245.632Q91.387 242.714 79.1996 239.898Q67.6771 237.236 53.8848 234.513Q41.1891 232.006 25.5087 229.241L25.3351 230.226Q41.0054 232.989 53.6911 235.494Q67.4675 238.214 78.9744 240.872Q91.1391 243.683 101.504 246.595Q112.276 249.62 121.601 252.892Q131.171 256.251 139.584 259.998Q148.134 263.806 155.777 268.143Q163.481 272.514 170.505 277.56Q177.531 282.608 184.092 288.486Q190.606 294.322 196.863 301.158Q203.025 307.889 209.14 315.812Q215.104 323.54 221.243 332.686Q227.159 341.499 233.491 352.012Q239.497 361.982 246.204 374.025Q252.401 385.154 259.699 398.957Q266.11 411.082 274.298 427.041Q277.166 432.63 280.751 439.668Q280.848 443.422 280.958 447.127Q278.15 442.068 275.796 437.849Q267.054 422.182 260.22 410.282Q252.439 396.731 245.852 385.817Q238.72 374.001 232.361 364.232Q225.652 353.926 219.418 345.305Q212.944 336.351 206.693 328.812Q200.278 321.074 193.856 314.532Q187.329 307.884 180.578 302.247Q173.774 296.567 166.531 291.737Q159.291 286.909 151.392 282.785Q143.559 278.695 134.836 275.169Q126.26 271.703 116.539 268.669Q107.075 265.714 96.1737 263.059Q85.6904 260.506 73.4122 258.117Q61.8038 255.858 47.9249 253.618Q35.1494 251.556 19.3821 249.34L19.2429 250.331Q35.0002 252.545 47.7656 254.605Q61.6284 256.843 73.2212 259.098Q85.4765 261.483 95.937 264.031Q106.808 266.678 116.241 269.623Q125.923 272.646 134.461 276.097Q143.139 279.604 150.929 283.671Q158.78 287.771 165.976 292.569Q173.174 297.369 179.937 303.015Q186.65 308.62 193.142 315.233Q199.535 321.745 205.923 329.45Q212.153 336.964 218.608 345.891Q224.827 354.492 231.523 364.778Q237.872 374.532 244.995 386.334Q251.577 397.239 259.353 410.78Q266.183 422.673 274.923 438.337Q277.665 443.25 281.024 449.307Q281.145 453.23 281.282 457.09Q278.747 452.878 276.581 449.295Q267.297 433.943 260.052 422.288Q251.802 409.017 244.838 398.34Q237.298 386.78 230.602 377.239Q223.538 367.173 217.007 358.775Q210.225 350.053 203.714 342.736Q197.033 335.227 190.386 328.913Q183.632 322.497 176.687 317.099Q169.69 311.659 162.283 307.086Q154.878 302.513 146.84 298.667Q138.87 294.853 130.029 291.634Q121.337 288.469 111.516 285.776Q101.955 283.153 90.9673 280.88Q80.4013 278.694 68.0471 276.735Q56.367 274.883 42.4184 273.129Q29.5787 271.514 13.7437 269.85L13.6391 270.844Q29.4641 272.508 42.2936 274.121Q56.2261 275.873 67.8905 277.723Q80.2216 279.678 90.7647 281.859Q101.721 284.126 111.251 286.74Q121.033 289.423 129.687 292.574Q138.482 295.776 146.409 299.569Q154.398 303.392 161.757 307.936Q169.119 312.482 176.074 317.888Q182.979 323.256 189.698 329.638Q196.314 335.923 202.967 343.401Q209.455 350.693 216.217 359.388Q222.733 367.768 229.784 377.814Q236.47 387.34 244.001 398.886Q250.959 409.555 259.203 422.816Q266.443 434.464 275.725 449.813Q278.285 454.046 281.356 459.152L281.363 459.341Q281.508 463.298 281.67 467.205Q279.485 463.848 277.576 460.926Q267.762 445.907 260.115 434.512Q251.407 421.537 244.074 411.109Q236.135 399.819 229.111 390.518Q221.699 380.705 214.879 372.539Q207.797 364.059 201.035 356.974Q194.095 349.703 187.233 343.625Q180.258 337.448 173.13 332.296Q165.947 327.104 158.385 322.792Q150.825 318.48 142.658 314.917Q134.559 311.383 125.611 308.475Q116.814 305.616 106.905 303.266Q97.258 300.979 86.1979 299.091Q75.5621 297.275 63.1471 295.748Q51.4094 294.305 37.4081 293.039Q24.52 291.873 8.63644 290.762L8.56668 291.76Q24.44 292.87 37.318 294.035Q51.3032 295.299 63.025 296.741Q75.4169 298.265 86.0297 300.077Q97.0584 301.96 106.674 304.239Q116.544 306.579 125.302 309.426Q134.203 312.319 142.258 315.834Q150.376 319.376 157.889 323.66Q165.404 327.946 172.544 333.106Q179.632 338.229 186.57 344.374Q193.401 350.424 200.311 357.664Q207.05 364.726 214.112 373.18Q220.916 381.327 228.313 391.121Q235.327 400.408 243.256 411.684Q250.583 422.104 259.284 435.069Q266.927 446.457 276.739 461.473Q279.046 465.004 281.753 469.165Q281.932 473.364 282.131 477.51Q280.356 474.982 278.763 472.721Q268.431 458.053 260.391 446.932Q251.235 434.269 243.543 424.103Q235.215 413.097 227.87 404.047Q220.121 394.499 213.02 386.576Q205.646 378.348 198.641 371.503Q191.452 364.479 184.381 358.644Q177.195 352.714 169.891 347.814Q162.531 342.876 154.823 338.83Q147.118 334.786 138.831 331.509Q130.614 328.26 121.57 325.666Q112.679 323.116 102.694 321.114Q92.9729 319.164 81.8536 317.663Q71.1609 316.22 58.7002 315.127Q46.9193 314.094 32.8823 313.317Q19.9613 312.602 4.0487 312.047L4.0138 313.046Q19.9162 313.601 32.827 314.316Q46.8478 315.092 58.6128 316.123Q71.0503 317.214 81.7198 318.654Q92.8076 320.151 102.497 322.094Q112.442 324.088 121.294 326.627Q130.291 329.208 138.464 332.439Q146.7 335.696 154.359 339.716Q162.019 343.737 169.334 348.644Q176.597 353.517 183.745 359.415Q190.783 365.224 197.942 372.219Q204.923 379.04 212.275 387.243Q219.36 395.147 227.094 404.677Q234.428 413.714 242.746 424.707Q250.432 434.864 259.58 447.518Q267.616 458.632 277.945 473.296Q279.945 476.135 282.222 479.379Q282.435 483.726 282.671 488.016Q281.374 486.301 280.154 484.691Q269.316 470.393 260.893 459.56Q251.301 447.224 243.259 437.333Q234.552 426.624 226.896 417.836Q218.818 408.563 211.445 400.893Q203.788 392.928 196.548 386.332Q189.119 379.563 181.849 373.978Q174.46 368.303 166.99 363.66Q159.462 358.982 151.618 355.208Q143.776 351.435 135.38 348.45Q127.054 345.489 117.925 343.212Q108.95 340.974 98.9012 339.321Q89.1184 337.713 77.9535 336.6Q67.2169 335.531 54.7257 334.874Q42.9159 334.253 28.8604 333.966Q15.9223 333.703 0 333.703L0 334.703Q15.9121 334.703 28.84 334.966Q42.8793 335.252 54.6732 335.873Q67.1411 336.528 77.8544 337.596Q88.9877 338.705 98.739 340.308Q108.748 341.954 117.683 344.183Q126.765 346.448 135.045 349.392Q143.39 352.359 151.184 356.109Q158.98 359.86 166.462 364.51Q173.891 369.126 181.24 374.771Q188.476 380.33 195.875 387.071Q203.09 393.645 210.724 401.586Q218.08 409.238 226.142 418.493Q233.787 427.268 242.484 437.964Q250.519 447.847 260.104 460.173Q268.522 471 279.357 485.295Q280.976 487.431 282.771 489.805Q285.134 531.868 289.6 567.988Q295.616 616.665 305.846 657.74Q310.914 678.089 317.123 697.105Q323.237 715.824 330.584 733.635Q337.771 751.054 346.288 767.959Q354.568 784.393 364.294 800.705Q373.68 816.447 384.661 832.503Q395.152 847.841 407.447 863.981Q419.001 879.149 432.71 895.771Q445.253 910.982 460.511 928.505Q473.7 943.654 490.91 962.812Q503.175 976.465 523.967 999.326L524.707 998.653Q503.913 975.79 491.654 962.144Q474.449 942.992 461.266 927.848Q446.014 910.332 433.482 895.135Q419.788 878.529 408.242 863.375Q395.962 847.254 385.486 831.938Q374.523 815.908 365.153 800.193Q355.445 783.911 347.181 767.509Q338.681 750.638 331.509 733.254Q324.176 715.479 318.074 696.794Q311.874 677.811 306.816 657.498Q296.601 616.483 290.593 567.865Q286.212 532.418 283.855 491.24Q286.018 494.105 288.41 497.28Q292.252 539.525 298.01 575.685Q305.721 624.122 317.378 664.815Q323.153 684.975 330.022 703.763Q336.786 722.257 344.75 739.801Q352.54 756.959 361.643 773.556Q370.491 789.691 380.781 805.654Q390.71 821.058 402.244 836.721Q413.264 851.684 426.115 867.385Q438.191 882.14 452.472 898.274Q465.539 913.037 481.399 930.017Q495.108 944.697 512.977 963.243Q525.711 976.46 547.288 998.58L548.004 997.882Q526.425 975.759 513.697 962.549Q495.834 944.01 482.13 929.335Q466.276 912.361 453.221 897.611Q438.956 881.493 426.889 866.752Q414.054 851.069 403.05 836.128Q391.533 820.49 381.621 805.112Q371.351 789.178 362.519 773.075Q353.436 756.511 345.661 739.388Q337.712 721.879 330.961 703.419Q324.104 684.663 318.339 664.54Q306.699 623.906 298.998 575.528Q293.356 540.09 289.554 498.8Q291.726 501.685 294.101 504.845Q299.433 547.172 306.485 583.29Q315.881 631.429 328.951 671.69Q335.427 691.636 342.947 710.173Q350.353 728.419 358.924 745.675Q367.308 762.55 376.984 778.82Q386.39 794.636 397.231 810.23Q407.692 825.279 419.766 840.529Q431.301 855.099 444.691 870.342Q457.276 884.667 472.111 900.292Q485.685 914.591 502.128 931.007Q516.341 945.199 534.846 963.11Q548.034 975.874 570.37 997.228L571.061 996.506Q548.723 975.149 535.542 962.391Q517.043 944.487 502.835 930.299Q486.398 913.889 472.836 899.604Q458.017 883.994 445.443 869.682Q432.068 854.457 420.55 839.909Q408.494 824.682 398.052 809.66Q387.232 794.094 377.844 778.309Q368.187 762.072 359.819 745.23Q351.265 728.01 343.874 709.797Q336.366 691.292 329.902 671.381Q316.851 631.178 307.466 583.099Q300.568 547.756 295.314 506.46Q297.5 509.37 299.841 512.49Q306.669 554.81 315.012 590.811Q326.083 638.592 340.55 678.373Q347.718 698.081 355.881 716.344Q363.918 734.321 373.086 751.267Q382.055 767.839 392.292 783.761Q402.245 799.24 413.623 814.446Q424.603 829.12 437.202 843.94Q449.238 858.098 463.153 872.864Q476.229 886.741 491.601 901.84Q505.665 915.655 522.671 931.488Q537.371 945.175 556.49 962.43Q570.115 974.726 593.183 995.288L593.848 994.541Q570.778 973.977 557.16 961.687Q538.047 944.439 523.353 930.756Q506.354 914.93 492.302 901.126Q476.947 886.043 463.881 872.179Q449.983 857.43 437.963 843.292Q425.384 828.496 414.423 813.847Q403.067 798.668 393.133 783.221Q382.916 767.33 373.966 750.791Q364.816 733.88 356.794 715.936Q348.644 697.704 341.49 678.031Q327.044 638.308 315.986 590.585Q307.838 555.419 301.134 514.214Q303.4 517.235 305.639 520.203Q313.964 562.427 323.592 598.24Q336.324 645.605 352.171 684.857Q360.021 704.302 368.817 722.269Q377.477 739.955 387.231 756.571Q396.772 772.82 407.559 788.375Q418.046 803.497 429.948 818.297Q441.433 832.579 454.541 846.95Q467.065 860.679 481.486 874.951Q495.039 888.363 510.928 902.916Q525.466 916.232 543.014 931.461Q558.183 944.628 577.892 961.204Q591.938 973.018 615.709 992.762L616.348 991.992Q592.575 972.246 578.536 960.439Q558.833 943.868 543.67 930.706Q526.129 915.483 511.604 902.178Q495.732 887.64 482.19 874.24Q467.786 859.985 455.28 846.276Q442.192 831.928 430.727 817.67Q418.847 802.897 408.381 787.805Q397.616 772.281 388.093 756.065Q378.359 739.483 369.715 721.83Q360.934 703.893 353.098 684.482Q337.274 645.288 324.558 597.98Q315.172 563.06 307.022 522.036Q309.259 524.998 311.487 527.933Q321.31 570.001 332.218 605.573Q346.594 652.465 363.801 691.14Q372.326 710.299 381.743 727.949Q391.015 745.321 401.343 761.587Q411.445 777.493 422.769 792.662Q433.777 807.408 446.188 821.784Q458.165 835.656 471.767 849.561Q484.762 862.845 499.672 876.605Q513.685 889.536 530.072 903.525Q545.066 916.326 563.135 930.934Q578.754 943.562 599.03 959.441Q613.479 970.757 637.925 989.66L638.537 988.868Q614.089 969.964 599.646 958.654Q579.377 942.781 563.764 930.156Q545.702 915.554 530.722 902.765Q514.352 888.789 500.35 875.87Q485.458 862.127 472.481 848.862Q458.901 834.979 446.945 821.13Q434.557 806.781 423.57 792.064Q412.27 776.925 402.187 761.05Q391.88 744.819 382.625 727.478Q373.224 709.859 364.715 690.733Q347.533 652.115 333.174 605.279Q322.561 570.665 312.973 529.89Q315.193 532.81 317.39 535.685Q328.709 577.543 340.892 612.827Q356.897 659.19 375.443 697.24Q384.631 716.091 394.658 733.401Q404.531 750.439 415.421 766.334Q426.072 781.878 437.918 796.643Q449.433 810.996 462.339 824.93Q474.792 838.376 488.871 851.797Q502.322 864.619 517.704 877.851Q532.159 890.285 549.025 903.694Q564.456 915.964 583.024 929.931Q599.074 942.007 619.892 957.169Q634.727 967.974 659.818 986.011L660.402 985.199Q635.309 967.16 620.481 956.361Q599.67 941.205 583.625 929.132Q565.065 915.17 549.647 902.911Q532.8 889.515 518.356 877.093Q502.993 863.877 489.561 851.074Q475.504 837.673 463.072 824.25Q450.191 810.342 438.698 796.017Q426.876 781.281 416.245 765.769Q405.378 749.907 395.524 732.899Q385.513 715.619 376.342 696.802Q357.823 658.807 341.837 612.501Q330.012 578.245 318.997 537.786Q321.18 540.636 323.333 543.433Q336.144 585.023 349.594 619.971Q367.207 665.747 387.069 703.127Q396.91 721.645 407.535 738.595Q417.996 755.278 429.434 770.783Q440.621 785.946 452.975 800.289Q464.985 814.231 478.368 827.706Q491.284 840.709 505.823 853.631Q519.713 865.976 535.547 878.663Q550.427 890.585 567.751 903.397Q583.601 915.121 602.645 928.432Q619.107 939.94 640.441 954.366Q655.644 964.646 681.349 981.798L681.904 980.966Q656.197 963.813 641.001 953.538Q619.674 939.117 603.218 927.612Q584.182 914.306 568.345 902.593Q551.041 889.793 536.172 877.882Q520.357 865.211 506.487 852.884Q491.971 839.982 479.078 827.001Q465.719 813.551 453.733 799.636Q441.404 785.322 430.239 770.19Q418.824 754.717 408.382 738.063Q397.775 721.143 387.952 702.658Q368.118 665.332 350.527 619.612Q337.507 585.775 325.082 545.703Q327.237 548.496 329.36 551.234Q343.653 592.483 358.354 627.035Q377.554 672.168 398.709 708.832Q409.19 726.996 420.4 743.564Q431.438 759.872 443.409 774.969Q455.119 789.732 467.966 803.635Q480.455 817.149 494.301 830.149Q507.662 842.693 522.643 855.101Q536.955 866.953 553.222 879.079Q568.51 890.475 586.27 902.674Q602.519 913.838 622.017 926.476Q638.87 937.403 660.694 951.076Q676.247 960.819 702.535 977.063L703.061 976.212Q676.771 959.967 661.225 950.228Q639.408 936.561 622.561 925.637Q603.071 913.003 586.836 901.85Q569.095 889.662 553.82 878.277Q537.572 866.166 523.281 854.33Q508.323 841.943 494.985 829.42Q481.165 816.444 468.7 802.956Q455.879 789.081 444.193 774.347Q432.245 759.282 421.229 743.004Q410.037 726.464 399.576 708.332Q378.451 671.721 359.275 626.644Q345.089 593.297 331.279 553.706Q333.354 556.374 335.416 559.013Q351.185 599.874 367.129 633.991Q387.892 678.427 410.314 714.33Q421.423 732.117 433.204 748.284Q444.804 764.197 457.295 778.867Q469.513 793.212 482.837 806.658Q495.79 819.729 510.081 832.237Q523.872 844.307 539.277 856.184Q553.994 867.53 570.675 879.081Q586.351 889.936 604.526 901.508Q621.155 912.098 641.081 924.048Q658.305 934.381 680.594 947.283Q696.478 956.478 723.316 971.794L723.812 970.926Q696.971 955.608 681.095 946.418Q658.814 933.52 641.596 923.191Q621.677 911.245 605.063 900.665Q586.907 889.103 571.244 878.259Q554.584 866.722 539.887 855.392Q524.507 843.535 510.74 831.484Q496.476 818.999 483.548 805.954Q470.25 792.535 458.056 778.218Q445.59 763.579 434.013 747.695Q422.25 731.556 411.163 713.801Q388.773 677.949 368.035 633.568Q352.709 600.769 337.54 561.726Q339.56 564.303 341.564 566.845Q358.788 607.238 375.951 640.853Q398.253 684.536 421.914 719.635Q433.636 737.024 445.975 752.77Q458.123 768.268 471.118 782.493Q483.829 796.403 497.615 809.376Q511.016 821.986 525.735 833.988Q539.939 845.57 555.749 856.902Q570.853 867.727 587.926 878.689Q603.972 888.991 622.539 899.922Q639.528 909.925 659.859 921.172Q677.434 930.897 700.159 943.014Q716.354 951.649 743.711 966.019L744.176 965.134Q716.816 950.762 700.629 942.131Q677.912 930.019 660.344 920.297Q640.021 909.054 623.047 899.06Q604.499 888.139 588.467 877.848Q571.414 866.899 556.331 856.09Q540.546 844.776 526.367 833.214Q511.676 821.233 498.3 808.647Q484.542 795.701 471.857 781.818Q458.887 767.623 446.762 752.153Q434.444 736.434 422.743 719.076Q399.116 684.028 376.842 640.398Q360.421 608.233 343.941 569.856Q345.867 572.292 347.782 574.7Q366.442 614.557 384.804 647.616Q408.616 690.495 433.488 724.747Q445.81 741.716 458.691 757.021Q471.372 772.087 484.856 785.849Q498.045 799.308 512.275 811.791Q526.108 823.926 541.237 835.407Q555.836 846.487 572.032 857.26Q587.505 867.551 604.95 877.91Q621.345 887.646 640.283 897.922Q657.61 907.326 678.322 917.857Q696.225 926.963 719.359 938.279Q735.845 946.343 763.687 959.75L764.121 958.849Q736.277 945.441 719.799 937.38Q696.672 926.069 678.775 916.966Q658.072 906.438 640.76 897.043Q621.842 886.776 605.461 877.051Q588.036 866.704 572.585 856.427Q556.415 845.671 541.841 834.611Q526.741 823.151 512.934 811.039Q498.733 798.58 485.57 785.149Q472.113 771.415 459.456 756.377Q446.596 741.098 434.297 724.16Q409.461 689.957 385.678 647.131Q368.216 615.687 350.479 578.085Q352.264 580.321 354.042 582.537Q374.125 621.815 393.67 654.281Q418.964 696.303 445.016 729.666Q457.923 746.194 471.33 761.041Q484.529 775.655 498.486 788.938Q512.136 801.928 526.793 813.907Q541.041 825.552 556.561 836.499Q571.538 847.062 588.1 857.263Q603.923 867.008 621.719 876.752Q638.444 885.909 657.729 895.518Q675.374 904.312 696.44 914.114Q714.65 922.589 738.165 933.091Q754.923 940.575 783.216 953.002L783.618 952.087Q755.323 939.658 738.573 932.178Q715.066 921.68 696.862 913.207Q675.805 903.409 658.175 894.623Q638.911 885.023 622.2 875.875Q604.424 866.143 588.625 856.411Q572.089 846.227 557.138 835.681Q541.646 824.755 527.426 813.133Q512.798 801.177 499.175 788.214Q485.247 774.958 472.072 760.371Q458.687 745.55 445.804 729.051Q419.79 695.736 394.527 653.766Q376.081 623.122 357.152 586.404Q358.777 588.418 360.4 590.421Q381.871 629.036 402.565 660.843Q429.311 701.956 456.511 734.39Q469.987 750.458 483.904 764.827Q497.605 778.971 512.016 791.76Q526.112 804.265 541.178 815.725Q555.824 826.866 571.716 837.264Q587.053 847.298 603.961 856.915Q620.114 866.102 638.24 875.219Q655.274 883.787 674.882 892.717Q692.824 900.89 714.219 909.951Q732.714 917.785 756.581 927.46Q773.59 934.355 802.299 945.787L802.669 944.858Q773.957 933.424 756.957 926.533Q733.098 916.862 714.609 909.03Q693.222 899.972 675.297 891.807Q655.709 882.885 638.689 874.326Q620.585 865.22 604.455 856.046Q587.574 846.444 572.264 836.427Q556.401 826.048 541.783 814.93Q526.747 803.492 512.68 791.012Q498.298 778.25 484.622 764.131Q470.728 749.786 457.277 733.747Q430.116 701.361 403.403 660.298Q384.076 630.587 364.066 594.932Q365.46 596.642 366.833 598.319Q389.663 636.206 411.478 667.304Q439.641 707.459 467.957 738.923Q481.985 754.511 496.396 768.387Q510.582 782.044 525.431 794.321Q539.954 806.328 555.411 817.255Q570.437 827.878 586.683 837.715Q602.36 847.207 619.593 856.228Q636.057 864.846 654.49 873.325Q671.813 881.293 691.721 889.534Q709.937 897.075 731.635 905.384Q750.392 912.568 774.583 921.404Q791.822 927.701 820.912 938.124L821.249 937.182Q792.156 926.758 774.926 920.464Q750.744 911.632 731.993 904.45Q710.303 896.144 692.104 888.61Q672.216 880.377 654.908 872.417Q636.497 863.948 620.057 855.343Q602.851 846.336 587.201 836.859Q570.985 827.04 555.988 816.438Q540.562 805.532 526.068 793.551Q511.249 781.299 497.089 767.666Q482.703 753.815 468.701 738.255Q440.426 706.836 412.296 666.73Q392.223 638.111 371.285 603.735Q372.312 604.981 373.344 606.227Q397.501 643.326 420.404 673.666Q449.952 712.814 479.349 743.271Q493.912 758.359 508.798 771.723Q523.453 784.877 538.721 796.629Q553.654 808.121 569.483 818.502Q584.87 828.594 601.45 837.858Q617.449 846.798 634.986 855.212Q651.741 863.25 670.458 871.08Q688.049 878.439 708.233 885.98Q726.7 892.881 748.676 900.427Q767.672 906.952 792.156 914.939Q809.604 920.63 839.041 930.032L839.345 929.079Q809.906 919.677 792.466 913.988Q767.99 906.005 749.001 899.481Q727.034 891.938 708.583 885.043Q688.42 877.509 670.844 870.158Q652.149 862.337 635.419 854.311Q617.909 845.91 601.938 836.985Q585.389 827.738 570.031 817.666Q554.234 807.305 539.331 795.837Q524.093 784.109 509.466 770.979Q494.605 757.638 480.068 742.576Q450.714 712.163 421.202 673.064Q400.602 645.771 378.981 613.002Q379.448 613.56 379.89 614.088Q405.357 650.368 429.33 679.922Q460.226 718.014 490.668 747.427Q505.749 761.998 521.092 774.834Q536.197 787.469 551.866 798.681Q567.191 809.644 583.373 819.467Q599.103 829.016 615.996 837.695Q632.297 846.071 650.117 853.868Q667.143 861.317 686.122 868.489Q703.958 875.229 724.393 882.061Q743.09 888.313 765.316 895.088Q784.528 900.946 809.276 908.073Q826.912 913.152 856.659 921.521L856.93 920.558Q827.18 912.189 809.552 907.112Q784.813 899.988 765.607 894.131Q743.391 887.359 724.71 881.113Q704.297 874.287 686.475 867.554Q667.519 860.39 650.518 852.952Q632.726 845.168 616.453 836.806Q599.592 828.142 583.892 818.612Q567.743 808.809 552.448 797.867Q536.81 786.679 521.734 774.067Q506.417 761.253 491.363 746.708Q460.965 717.338 430.107 679.292Q410.169 654.711 389.195 625.472Q388.351 624.296 387.521 623.133Q390.499 626.638 393.463 630.086Q421.32 664.393 447.228 692.13Q480.706 727.974 513.125 755.192Q529.186 768.675 545.387 780.41Q561.337 791.96 577.75 802.052Q593.803 811.92 610.63 820.59Q626.988 829.018 644.445 836.498Q661.291 843.716 679.612 850.251Q697.115 856.494 716.548 862.325Q734.811 867.805 755.673 873.194Q774.76 878.127 797.404 883.335Q816.978 887.839 842.163 893.222Q860.111 897.058 890.369 903.332L890.572 902.352Q860.311 896.078 842.372 892.244Q817.196 886.863 797.629 882.36Q774.994 877.154 755.923 872.226Q735.083 866.841 716.835 861.367Q697.425 855.543 679.947 849.309Q661.655 842.785 644.839 835.579Q627.414 828.112 611.088 819.701Q594.294 811.048 578.273 801.2Q561.893 791.129 545.974 779.6Q529.8 767.886 513.768 754.426Q481.396 727.248 447.959 691.447Q433.11 675.549 417.62 657.491Q437.427 679.372 456.174 698.087Q490.883 732.742 524.232 758.811Q540.754 771.726 557.355 782.888Q573.697 793.875 590.452 803.387Q606.84 812.689 623.959 820.766Q640.602 828.619 658.309 835.485Q675.396 842.111 693.934 848.003Q711.645 853.63 731.27 858.78Q749.713 863.619 770.75 868.277Q789.998 872.541 812.81 876.955Q832.529 880.773 857.886 885.274Q875.957 888.482 906.416 893.695L906.584 892.709Q876.123 887.496 858.061 884.29Q832.713 879.791 813 875.973Q790.197 871.56 770.966 867.301Q749.951 862.646 731.523 857.812Q711.922 852.669 694.237 847.05Q675.729 841.167 658.67 834.553Q640.996 827.699 624.386 819.862Q607.301 811.8 590.946 802.517Q574.225 793.025 557.913 782.058Q541.34 770.916 524.848 758.023Q491.547 731.992 456.88 697.38Q426.918 667.464 394.238 629.453Q385.951 619.247 377.49 608.458Q376.099 606.684 374.712 604.905Q371.804 600.702 368.873 596.406ZM368.606 598.904Q368.153 598.2 367.7 597.494Q367.279 596.947 366.806 596.333Q367.226 597.031 367.656 597.745Q368.143 598.34 368.606 598.904ZM361.233 589.861Q362.255 591.121 363.258 592.356Q362.389 590.898 361.514 589.423Q360.54 588.145 359.585 586.888Q360.409 588.378 361.233 589.861ZM357.603 585.369Q356.253 583.694 354.888 581.993Q353.854 579.971 352.818 577.93Q354.11 579.649 355.406 581.367Q356.507 583.38 357.603 585.369ZM351.803 578.14Q350.589 575.746 349.375 573.332Q347.874 571.323 346.369 569.297Q347.507 571.751 348.64 574.172Q350.217 576.155 351.803 578.14ZM345.962 570.797Q344.706 568.095 343.447 565.357Q341.773 563.095 340.093 560.813Q341.264 563.589 342.433 566.331Q344.206 568.581 345.962 570.797ZM340.07 563.329Q338.815 560.365 337.56 557.365Q335.771 554.926 333.981 552.473Q335.139 555.514 336.297 558.515Q338.189 560.935 340.07 563.329ZM334.184 555.808Q332.965 552.627 331.746 549.405Q329.902 546.87 328.025 544.275Q329.137 547.531 330.253 550.753Q332.23 553.302 334.184 555.808ZM328.342 548.287Q327.184 544.92 326.028 541.511Q324.089 538.824 322.144 536.113Q323.188 539.562 324.237 542.967Q326.296 545.642 328.342 548.287ZM322.494 540.701Q321.413 537.169 320.339 533.596Q318.365 530.838 316.385 528.059Q317.341 531.668 318.306 535.235Q320.405 537.982 322.494 540.701ZM316.704 533.138Q315.719 529.47 314.739 525.746Q312.721 522.907 310.692 520.038Q311.549 523.797 312.413 527.5Q314.57 530.34 316.704 533.138ZM310.931 525.546Q310.052 521.75 309.18 517.898Q307.132 514.997 305.078 512.073Q305.823 515.959 306.577 519.786Q308.761 522.682 310.931 525.546ZM305.198 517.956Q304.433 514.044 303.679 510.08Q301.615 507.136 299.532 504.152Q300.154 508.148 300.79 512.089Q301.071 512.464 301.4 512.903Q303.303 515.44 305.198 517.956ZM299.5 510.37Q298.858 506.353 298.23 502.285L298.191 502.228Q296.066 499.179 294.057 496.3Q294.551 500.407 295.061 504.458Q297.211 507.32 299.5 510.37ZM293.85 502.848Q293.338 498.734 292.841 494.557Q290.666 491.441 288.646 488.552Q289.005 492.761 289.381 496.908Q291.514 499.74 293.85 502.848ZM288.239 495.392Q287.862 491.183 287.504 486.919Q285.3 483.768 283.3 480.916Q283.516 485.211 283.753 489.447Q285.881 492.263 288.239 495.392ZM281.384 370.336Q281.237 369.569 281.106 368.893Q281.111 367.942 281.117 367.032Q281.239 367.815 281.333 368.417Q281.358 369.365 281.384 370.336ZM281.652 379.67Q281.604 378.093 281.558 376.529Q281.307 375.221 281.082 374.055Q281.077 375.598 281.073 377.148Q281.361 378.401 281.652 379.67ZM281.944 388.788Q281.496 387.106 281.066 385.494Q281.064 383.54 281.066 381.591Q281.435 383.204 281.814 384.86Q281.877 386.823 281.944 388.788ZM283.194 386.41Q283.127 385.367 283.06 384.323Q282.902 383.509 282.746 382.701Q282.778 383.728 282.811 384.733Q283.018 385.641 283.194 386.41ZM282.271 397.965Q282.183 395.624 282.099 393.259Q281.587 391.334 281.072 389.4Q281.078 391.742 281.088 394.078Q281.657 395.947 282.271 397.965ZM283.822 395.851Q283.466 394.509 283.095 393.113Q283.039 391.555 282.986 389.983Q283.297 391.344 283.609 392.698Q283.714 394.27 283.822 395.851ZM284.66 392.809L284.603 392.229L284.568 392.051L284.602 392.554L284.66 392.809ZM282.632 407.127Q281.868 404.899 281.141 402.782Q281.12 400.184 281.105 397.569Q281.746 399.677 282.421 401.899Q282.524 404.521 282.632 407.127ZM284.482 405.243Q284.334 403.191 284.188 401.115Q283.721 399.365 283.259 397.626Q283.336 399.69 283.416 401.733Q283.938 403.45 284.482 405.243ZM285.668 402.782Q285.435 401.912 285.179 400.951Q285.104 399.892 285.033 398.86Q285.247 399.784 285.45 400.655Q285.559 401.729 285.668 402.782ZM285.17 414.54Q284.432 412.383 283.773 410.458Q283.671 408.079 283.574 405.696L284.069 407.329Q284.441 408.555 284.813 409.777Q284.99 412.174 285.17 414.54ZM283.032 416.369Q282.903 413.52 282.779 410.643Q281.966 408.267 281.169 405.943Q281.196 408.816 281.23 411.66Q282.108 413.953 283.032 416.369ZM286.686 412.495Q286.504 410.785 286.324 409.085Q285.942 407.667 285.556 406.229Q285.677 407.905 285.802 409.594Q286.245 411.05 286.686 412.495ZM287.424 409.323L287.311 408.903L287.254 408.362L287.345 408.749L287.424 409.323ZM285.898 423.872Q285.684 421.209 285.476 418.526Q285.251 417.869 285.032 417.227Q284.478 415.607 283.927 413.996Q284.046 416.683 284.17 419.347Q285.021 421.573 285.898 423.872ZM287.718 421.981Q287.091 420.157 286.464 418.324Q286.302 416.241 286.143 414.139Q286.699 415.961 287.256 417.773Q287.486 419.885 287.718 421.981ZM283.477 425.752Q282.374 423.145 281.357 420.745Q281.307 417.66 281.266 414.551Q282.191 416.969 283.178 419.553Q283.324 422.671 283.477 425.752ZM288.855 419.571Q288.686 418.378 288.516 417.175Q288.254 416.211 287.985 415.223Q288.113 416.402 288.24 417.572Q288.547 418.57 288.855 419.571ZM288.785 431.433Q288.504 428.99 288.226 426.528Q287.503 424.433 286.778 422.322Q286.972 424.776 287.171 427.211Q287.979 429.328 288.785 431.433ZM286.674 433.316Q285.621 430.821 284.614 428.439Q284.465 425.509 284.322 422.547Q285.207 424.865 286.135 427.3L286.186 427.433Q286.427 430.391 286.674 433.316ZM290.26 429.348Q289.735 427.832 289.208 426.307Q289.014 424.586 288.822 422.861Q289.288 424.367 289.757 425.881Q290.007 427.616 290.26 429.348ZM283.97 435.235Q283.793 431.971 283.624 428.665Q282.485 425.972 281.402 423.414Q281.46 426.721 281.527 429.988Q282.708 432.523 283.97 435.235ZM290.912 426.229Q290.836 425.801 290.758 425.355L290.619 424.852Q290.676 425.248 290.736 425.661L290.912 426.229ZM288.294 437.154L287.932 436.296Q287.697 433.556 287.466 430.785Q288.356 433.112 289.248 435.433Q289.572 438.204 289.9 440.956Q289.095 439.053 288.294 437.154ZM291.683 438.973Q291.358 436.804 291.036 434.63Q290.383 432.756 289.726 430.862Q289.975 433.034 290.227 435.193Q290.955 437.085 291.683 438.973ZM287.499 442.833Q287.22 439.7 286.949 436.538Q285.803 433.824 284.765 431.366Q284.931 434.539 285.105 437.678Q286.275 440.195 287.499 442.833ZM292.75 436.507Q292.381 435.451 292.012 434.391Q291.834 433.192 291.657 431.987Q291.985 433.037 292.312 434.08Q292.531 435.298 292.75 436.507ZM284.515 444.859Q283.079 442.036 281.745 439.417Q281.657 435.968 281.58 432.469Q282.81 435.112 284.117 437.924Q284.311 441.416 284.515 444.859ZM293.151 448.607Q292.227 446.44 291.306 444.273Q291.001 441.75 290.699 439.199Q291.534 441.364 292.371 443.524Q292.759 446.074 293.151 448.607ZM291.064 450.516Q290.694 447.537 290.33 444.533Q289.27 442.035 288.212 439.532Q288.475 442.537 288.744 445.517Q289.171 446.438 289.675 447.525Q290.364 449.011 291.064 450.516ZM294.564 446.408Q294.23 444.609 293.9 442.814Q293.351 441.252 292.802 439.685Q293.072 441.484 293.344 443.266Q293.949 444.828 294.564 446.408ZM288.381 452.472Q286.961 449.673 285.65 447.093Q285.449 443.757 285.257 440.377Q286.495 443.043 287.764 445.779Q288.069 449.15 288.381 452.472ZM295.12 443.267Q295.014 442.965 294.87 442.557Q294.788 442.112 294.716 441.718L294.933 442.405Q295.028 442.841 295.12 443.267ZM285.118 454.636Q284.886 451.027 284.664 447.36Q283.178 444.435 281.806 441.739Q281.904 445.411 282.016 449.035Q283.496 451.704 285.118 454.636ZM296.403 456.207Q295.581 454.292 294.742 452.333Q294.39 450.082 294.042 447.825Q294.792 449.752 295.549 451.689Q295.977 453.963 296.403 456.207ZM294.66 458.228Q294.216 455.437 293.773 452.611Q292.753 450.226 291.743 447.855Q292.089 450.677 292.441 453.476Q293.554 455.865 294.66 458.228ZM291.212 458.057Q290.396 456.446 289.616 454.908Q289.311 451.709 289.014 448.476Q290.248 451.138 291.468 453.755Q291.873 456.981 292.285 460.173Q291.741 459.1 291.212 458.057ZM297.391 453.648Q297.109 452.372 296.83 451.105Q296.439 450.005 296.041 448.882Q296.277 450.146 296.515 451.412Q296.951 452.527 297.391 453.648ZM289.325 462.247Q288.977 458.74 288.638 455.19Q287.186 452.326 285.803 449.603Q286.023 453.173 286.254 456.689Q287.754 459.402 289.325 462.247ZM285.787 464.587Q284.002 461.612 282.346 458.858Q282.208 455.07 282.084 451.221Q283.614 453.982 285.271 456.977Q285.522 460.809 285.787 464.587ZM298.273 465.918Q297.772 463.347 297.273 460.757Q296.322 458.551 295.374 456.344Q295.786 458.945 296.199 461.511Q297.234 463.715 298.273 465.918ZM299.64 463.712Q298.945 462.106 298.235 460.461Q297.874 458.582 297.517 456.706Q298.153 458.324 298.793 459.946Q299.217 461.837 299.64 463.712ZM296.228 467.915Q294.942 465.398 293.64 462.838Q293.242 459.793 292.851 456.72Q294.041 459.266 295.234 461.808Q295.73 464.883 296.228 467.915ZM293.572 469.944Q293.118 466.566 292.67 463.138Q291.497 460.832 290.32 458.509L289.878 457.636Q290.211 461.075 290.552 464.47Q291.703 466.556 292.909 468.743Q293.243 469.348 293.572 469.944ZM300.045 460.393Q299.909 459.867 299.787 459.39Q299.672 459.069 299.538 458.695Q299.641 459.158 299.752 459.652Q299.89 460.002 300.045 460.393ZM290.339 472.181Q288.571 469.229 286.923 466.481Q286.66 462.785 286.409 459.037Q287.951 461.826 289.577 464.773Q289.953 468.507 290.339 472.181ZM286.524 474.675Q286.248 471.051 285.986 467.392Q285.962 467.053 285.943 466.79Q284.104 463.724 282.423 460.926Q282.573 464.909 282.74 468.85Q284.546 471.627 286.524 474.675ZM301.891 473.564Q301.364 471.281 300.839 468.986Q299.981 467.013 299.117 465.02Q299.566 467.327 300.015 469.606Q300.95 471.583 301.891 473.564ZM300.195 475.65Q298.961 473.253 297.725 470.84Q297.251 467.987 296.78 465.097Q297.926 467.53 299.057 469.921Q299.625 472.803 300.195 475.65ZM297.861 477.692Q297.311 474.449 296.764 471.158Q295.401 468.497 294.029 465.807Q294.465 469.103 294.907 472.362Q296.394 475.05 297.861 477.692ZM302.785 470.949Q302.292 469.817 301.793 468.672Q301.486 467.325 301.177 465.969Q301.619 467.08 302.069 468.21Q302.429 469.589 302.785 470.949ZM294.761 479.573Q293.105 476.802 291.56 474.221Q291.179 470.637 290.809 467.005Q291.416 468.105 292.033 469.226Q292.989 470.959 293.942 472.682Q294.433 476.301 294.932 479.859L294.761 479.573ZM291.424 482.236Q291.052 478.879 290.689 475.483Q290.639 475.024 290.589 474.545Q288.786 471.533 287.082 468.691Q287.365 472.586 287.662 476.43Q289.477 479.228 291.424 482.236ZM287.339 484.939Q285.177 481.85 283.207 479.043Q283.007 474.958 282.825 470.815Q284.665 473.645 286.684 476.759Q287.003 480.874 287.339 484.939ZM304.181 483.369Q303.03 481.147 301.867 478.895Q301.337 476.268 300.809 473.617Q301.88 475.873 302.946 478.108Q303.564 480.754 304.181 483.369ZM305.461 481.051Q304.95 479.142 304.443 477.231Q303.731 475.61 303.009 473.96Q303.45 475.866 303.896 477.775Q304.681 479.422 305.461 481.051ZM302.181 485.441Q301.546 482.354 300.915 479.23Q299.592 476.668 298.267 474.088Q298.794 477.226 299.325 480.323Q300.756 482.893 302.181 485.441ZM299.571 487.593Q297.922 484.852 296.253 482.066Q295.763 478.607 295.282 475.104Q296.829 477.897 298.368 480.66Q298.967 484.154 299.571 487.593ZM305.812 477.86Q305.617 477.418 305.39 476.899Q305.234 476.314 305.084 475.745Q305.262 476.189 305.459 476.677Q305.64 477.284 305.812 477.86ZM296.366 489.876Q295.91 486.76 295.463 483.621Q295.378 483.022 295.291 482.406Q294.593 481.242 293.903 480.086Q292.838 478.305 291.813 476.592Q292.221 480.376 292.641 484.116Q294.465 486.935 296.366 489.876ZM292.592 492.454Q290.443 489.376 288.479 486.568Q288.144 482.568 287.825 478.519Q289.684 481.387 291.673 484.46Q292.126 488.485 292.592 492.454ZM308.145 490.987Q307.111 489.007 306.075 487.015Q305.518 484.681 304.964 482.329Q305.921 484.328 306.875 486.311Q307.51 488.659 308.145 490.987ZM306.529 493.187Q305.828 490.291 305.131 487.367Q303.867 484.937 302.596 482.482Q303.196 485.426 303.798 488.329Q305.163 490.762 306.529 493.187ZM308.992 488.401Q308.577 487.039 308.156 485.648Q307.615 484.428 307.073 483.201Q307.447 484.592 307.817 485.961Q308.407 487.188 308.992 488.401ZM304.243 495.332Q302.63 492.669 301.007 489.977Q300.419 486.66 299.837 483.296Q301.344 485.997 302.851 488.684Q303.546 492.034 304.243 495.332ZM301.355 497.576Q300.832 494.699 300.314 491.797Q300.183 491.057 300.055 490.334Q298.34 487.49 296.615 484.616Q297.14 488.281 297.674 491.9Q299.516 494.747 301.355 497.576ZM297.886 500.041Q295.788 497.032 293.805 494.191Q293.342 490.294 292.893 486.346Q294.377 488.641 295.962 491.093Q296.328 491.66 296.716 492.26Q297.295 496.173 297.886 500.041ZM310.87 500.867Q310.13 498.211 309.388 495.52Q308.213 493.278 307.035 491.021Q307.684 493.718 308.336 496.391Q309.611 498.648 310.87 500.867ZM312.113 498.556Q311.219 496.857 310.324 495.15Q309.788 493.205 309.25 491.236Q310.081 492.954 310.909 494.66Q311.512 496.618 312.113 498.556ZM308.95 503.075Q307.393 500.523 305.817 497.927Q305.144 494.771 304.475 491.578Q305.941 494.185 307.397 496.763Q308.173 499.942 308.95 503.075ZM306.379 505.283Q305.808 502.66 305.239 500.007Q305.054 499.143 304.874 498.301Q303.184 495.518 301.495 492.722Q302.128 496.255 302.768 499.75Q304.582 502.536 306.379 505.283ZM312.292 495.22Q312.079 494.595 311.877 494.004Q311.68 493.563 311.481 493.119Q311.67 493.733 311.842 494.292Q312.067 494.756 312.292 495.22ZM303.227 507.692Q301.217 504.821 299.184 501.904Q298.6 498.118 298.029 494.288Q299.93 497.223 301.82 500.127Q302.519 503.936 303.227 507.692ZM315.24 508.539Q314.495 506.184 313.747 503.798Q312.664 501.749 311.582 499.694Q312.248 502.09 312.916 504.467Q314.085 506.52 315.24 508.539ZM313.661 510.772Q312.183 508.366 310.689 505.923Q309.95 502.965 309.214 499.974Q310.6 502.42 311.987 504.856Q312.825 507.836 313.661 510.772ZM315.949 505.818Q315.314 504.62 314.674 503.41Q314.229 501.989 313.788 500.572Q314.371 501.767 314.96 502.969Q315.453 504.393 315.949 505.818ZM311.441 512.994Q310.842 510.641 310.246 508.267Q310.002 507.296 309.756 506.315Q308.105 503.614 306.454 500.9Q307.182 504.286 307.916 507.63Q309.681 510.323 311.441 512.994ZM308.605 515.348Q306.615 512.524 304.622 509.683Q303.926 506.018 303.239 502.303Q305.116 505.181 306.979 508.024Q307.788 511.708 308.605 515.348ZM318.415 518.481Q317.009 516.21 315.605 513.931Q314.826 511.219 314.045 508.465Q315.36 510.766 316.674 513.056Q317.546 515.788 318.415 518.481ZM319.531 516.017Q318.829 514.036 318.129 512.046Q317.231 510.364 316.329 508.668Q316.96 510.659 317.595 512.649Q318.568 514.346 319.531 516.017ZM316.513 520.67Q315.915 518.617 315.317 516.545Q314.998 515.44 314.682 514.34Q313.097 511.767 311.504 509.169Q312.312 512.374 313.125 515.549Q314.827 518.128 316.513 520.67ZM319.625 512.725Q319.322 512.158 319.047 511.642Q318.828 511.019 318.599 510.367Q318.858 510.892 319.127 511.436Q319.372 512.07 319.625 512.725ZM314.021 523.008Q312.074 520.262 310.112 517.484Q309.314 513.954 308.522 510.376Q310.369 513.189 312.198 515.96Q313.107 519.505 314.021 523.008ZM323.123 526.059Q321.871 524.053 320.616 522.031Q319.832 519.621 319.046 517.178Q320.221 519.216 321.389 521.234Q322.256 523.658 323.123 526.059ZM321.637 528.367Q321.061 526.618 320.489 524.868Q320.094 523.659 319.703 522.457Q318.18 520.005 316.636 517.506Q317.504 520.504 318.376 523.475Q320.009 525.93 321.637 528.367ZM323.761 523.331Q323.196 521.896 322.621 520.427Q321.936 519.155 321.259 517.893Q321.78 519.358 322.299 520.81Q323.03 522.073 323.761 523.331ZM319.453 530.637Q317.556 527.981 315.661 525.316Q314.772 521.938 313.889 518.52Q315.677 521.221 317.459 523.902Q318.453 527.287 319.453 530.637ZM326.734 535.966Q326.227 534.589 325.721 533.208Q325.24 531.892 324.753 530.555Q323.339 528.298 321.917 526.016Q322.817 528.758 323.719 531.478Q325.232 533.736 326.734 535.966ZM327.821 533.562Q326.74 531.843 325.656 530.112Q324.921 528.092 324.18 526.043Q325.196 527.789 326.209 529.523Q327.018 531.557 327.821 533.562ZM324.941 538.29Q323.095 535.726 321.25 533.15Q320.289 529.952 319.331 526.713Q321.078 529.334 322.812 531.922Q323.874 535.122 324.941 538.29ZM327.781 530.23Q327.496 529.571 327.201 528.888Q326.888 528.314 326.579 527.744Q326.842 528.407 327.11 529.082Q327.459 529.678 327.781 530.23ZM331.848 543.534Q331.444 542.542 331.051 541.575Q330.477 540.162 329.906 538.749Q328.614 536.704 327.305 534.622Q328.197 537.05 329.092 539.463Q330.471 541.505 331.848 543.534ZM330.413 545.867Q328.672 543.465 326.928 541.049Q325.916 538.062 324.906 535.042Q326.555 537.495 328.195 539.923Q329.304 542.911 330.413 545.867ZM332.419 540.85Q331.614 539.578 330.799 538.289Q330.198 536.801 329.594 535.298Q330.353 536.589 331.113 537.877Q331.77 539.377 332.419 540.85ZM335.92 553.432Q334.281 551.189 332.635 548.927Q331.602 546.194 330.569 543.43Q332.123 545.723 333.678 548.004Q334.798 550.731 335.92 553.432ZM336.919 550.978Q336.691 550.469 336.466 549.967Q335.801 548.48 335.141 546.998Q334.034 545.26 332.912 543.494Q333.737 545.518 334.563 547.526Q335.743 549.259 336.919 550.978ZM336.741 547.645Q336.384 547.086 336.024 546.521Q335.709 545.813 335.395 545.106Q335.711 545.637 336.046 546.199Q336.394 546.923 336.741 547.645ZM341.415 560.921Q339.929 558.905 338.437 556.87Q337.425 554.452 336.413 552.01Q337.828 554.077 339.237 556.127Q340.326 558.534 341.415 560.921ZM341.836 558.138Q341.124 556.684 340.415 555.228Q339.604 553.969 338.787 552.696Q339.452 554.175 340.112 555.634Q340.965 556.873 341.836 558.138ZM346.82 568.228Q345.571 566.546 344.314 564.847Q343.386 562.829 342.46 560.802Q343.657 562.534 344.837 564.233Q345.828 566.236 346.82 568.228ZM346.523 564.907Q346.162 564.229 345.806 563.559Q345.408 562.947 345.028 562.361Q345.364 563.043 345.701 563.723Q346.107 564.309 346.523 564.907ZM352.121 575.332Q351.17 574.064 350.23 572.806Q349.491 571.335 348.747 569.848Q349.648 571.137 350.545 572.416Q351.332 573.877 352.121 575.332ZM357.137 582Q356.665 581.376 356.249 580.825Q355.87 580.13 355.495 579.445Q355.933 580.064 356.335 580.631Q356.733 581.311 357.137 582Z" fill-rule="evenodd" transform="matrix(-0.782677 -0.622426 -0.622427 0.782678 1232.23 -112.908)" fill="url(#linearGradient0:0:0)"/>
</svg>
