
<svg mexport="1" xmlns="http://www.w3.org/2000/svg" xmlns:xlink="http://www.w3.org/1999/xlink" width="25.501" height="23.3467" viewBox="0 0 25.501 23.3467">
	<defs>
		<linearGradient id="linearGradient0:0:0" gradientTransform="matrix(0 23.3467 -25.5013 0 25.5013 0)" gradientUnits="userSpaceOnUse" x1="0" y1="0.5" x2="1" y2="0.5">
			<stop offset="0" stop-color="rgb(254, 213, 129)"/>
			<stop offset="1" stop-color="rgb(255, 242, 202)"/>
		</linearGradient>
	</defs>
	<path d="M16.8517 0.292067C17.2411 -0.0973549 17.8725 -0.0973558 18.2619 0.292067L18.2629 0.293124C18.6524 0.682546 18.6513 1.31287 18.2619 1.70229L15.1605 4.80371C15.735 4.83157 16.3091 4.8694 16.8826 4.91719L19.8417 5.16378C22.6781 5.40015 24.9556 7.60155 25.2881 10.4283L25.2888 10.434C25.5722 12.8374 25.5721 15.2546 25.2888 17.6581L25.2881 17.6638C24.9556 20.4905 22.6781 22.6919 19.8417 22.9283L16.8826 23.1749C14.1326 23.404 11.3683 23.404 8.61827 23.1749L5.65918 22.9283C2.82278 22.6919 0.545303 20.4905 0.212746 17.6638L0.212078 17.6581C-0.0706577 15.2545 -0.0707283 12.8375 0.212078 10.434L0.212746 10.4283C0.545303 7.60155 2.82278 5.40015 5.65918 5.16378L8.61829 4.91719C8.88147 4.89526 9.14479 4.87542 9.40821 4.85769L8.19784 2.34885C7.95854 1.85283 8.16665 1.25674 8.66267 1.01744L8.66402 1.01679C9.16004 0.777488 9.75478 0.986249 9.99408 1.48227L11.575 4.7592C11.849 4.75272 12.1231 4.74851 12.3972 4.74657L16.8517 0.292067ZM4.24327 11.0358L4.24327 16.6449Q4.24327 17.3461 4.98336 17.3461Q5.6845 17.3461 5.72345 16.6449L5.72345 14.4636L7.28154 14.4636Q7.90478 14.4636 7.98268 13.7625C7.93074 13.321 7.69703 13.0873 7.28154 13.0613L5.72345 13.0613L5.72345 11.6201L7.55421 11.6201Q8.17744 11.6201 8.21639 10.919C8.16446 10.5035 7.94373 10.2827 7.55421 10.2568L4.98336 10.2568C4.51593 10.3087 4.26923 10.5684 4.24327 11.0358ZM13.0465 15.1647L16.1237 15.1647Q16.4181 15.1832 16.5735 15.0451Q16.7469 14.8909 16.7469 14.5415Q16.4353 12.1654 14.1761 11.9317Q11.8 12.1654 11.6052 14.6973Q11.7221 17.3071 14.2929 17.385Q16.3574 17.2682 16.6301 16.2554C16.5781 15.8919 16.3834 15.6841 16.0458 15.6322Q15.851 15.6322 15.4615 15.8659Q14.8383 16.2165 14.4098 16.2165Q13.2412 16.1775 13.0465 15.1647ZM21.4602 15.1647L18.3829 15.1647Q18.5777 16.1775 19.7463 16.2165Q20.1747 16.2165 20.798 15.8659Q21.1875 15.6322 21.3823 15.6322C21.7198 15.6841 21.9146 15.8919 21.9665 16.2554Q21.6939 17.2682 19.6294 17.385Q17.0586 17.3071 16.9417 14.6973Q17.1365 12.1654 19.5125 11.9317Q21.7718 12.1654 22.0834 14.5415Q22.0834 14.8909 21.9099 15.0451Q21.7546 15.1832 21.4602 15.1647ZM8.56696 16.606L8.56696 12.7108Q8.56696 12.0486 9.30706 11.9707Q9.96924 12.0096 10.0082 12.5939Q10.3977 11.9707 11.021 11.9707Q11.6831 12.0486 11.7221 12.7497Q11.7221 13.1392 11.0989 13.3729C10.995 13.3989 10.9171 13.4249 10.8651 13.4509Q9.96924 13.8014 10.0082 14.3857L10.0082 16.606Q9.93029 17.3461 9.2681 17.3461Q8.60592 17.3461 8.56696 16.606ZM15.3057 14.2299L13.0075 14.2299Q13.1633 13.1782 14.1761 13.1003Q15.1109 13.1392 15.3057 14.2299ZM18.344 14.2299L20.6422 14.2299Q20.4474 13.1392 19.5125 13.1003Q18.4998 13.1782 18.344 14.2299Z" fill-rule="evenodd" transform="matrix(1 0 0 1 0.000319481 -2.95639e-05)" fill="url(#linearGradient0:0:0)"/>
</svg>
