
<svg mexport="1" xmlns="http://www.w3.org/2000/svg" xmlns:xlink="http://www.w3.org/1999/xlink" width="26.0361" height="26.0035" viewBox="0 0 26.0361 26.0035">
	<defs>
		<linearGradient id="linearGradient0:0:0" gradientTransform="matrix(0 26.0035 -26.0366 0 26.0366 0)" gradientUnits="userSpaceOnUse" x1="0" y1="0.5" x2="1" y2="0.5">
			<stop offset="0" stop-color="rgb(254, 213, 129)"/>
			<stop offset="1" stop-color="rgb(255, 242, 202)"/>
		</linearGradient>
	</defs>
	<path d="M17.7055 8.56165C17.7055 9.21846 17.6 9.85061 17.405 10.4421L14.3378 10.4421Q12.9123 10.4421 11.6088 10.9927C10.77 11.347 10.0274 11.8469 9.3809 12.4926Q8.47174 13.4005 7.94718 14.5616L6 14.5616C2.68629 14.5616 -1.90735e-06 11.8754 -1.90735e-06 8.56165L-1.90735e-06 6C-1.90735e-06 2.6863 2.68629 -1.90735e-06 6 0L13.7056 0C13.7315 0 13.7574 0.000247955 13.7833 0.000741005L19.7113 0.000741005C20.7668 0.000741005 21.1024 1.42389 20.158 1.89541L18.8106 2.56822C18.1561 2.89502 17.7341 3.55182 17.7055 4.27866L17.7055 8.56165ZM4.57974 3.96643L4.57974 9.36471C4.60657 9.82414 4.86135 10.0666 5.34409 10.0921L7.9992 10.0921Q8.64286 10.0921 8.72332 9.403Q8.68309 8.79042 7.9992 8.75214L6.10844 8.75214L6.10844 7.259L7.79806 7.259C8.25398 7.23347 8.50877 7.00376 8.56241 6.56985C8.50877 6.16147 8.25398 5.93176 7.79806 5.88071L6.10844 5.88071L6.10844 4.46414L7.91874 4.46414Q8.56241 4.46414 8.64286 3.775Q8.56241 3.16243 7.91874 3.12414L5.34409 3.12414Q4.57974 3.16243 4.57974 3.96643ZM9.24564 9.3647L9.24564 5.6127Q9.24564 4.88528 10.0099 4.8087C10.3853 4.83423 10.6132 5.0129 10.6936 5.3447Q11.0958 4.77042 12.1014 4.77042Q14.032 4.88528 14.1527 6.64642L14.1527 9.3647Q14.0722 10.0921 13.3885 10.0921Q12.7047 10.0921 12.6645 9.3647L12.6645 6.91442Q12.584 5.99556 11.6992 5.91899C11.0824 5.97004 10.7607 6.30185 10.7338 6.91442L10.7338 9.3647Q10.6936 10.0921 10.0099 10.0921Q9.28587 10.0921 9.24564 9.3647ZM9.06629 14.5616C8.59758 15.4166 8.33105 16.3981 8.33105 17.4419L8.33024 21.6448C8.33024 22.4027 7.90179 23.0955 7.22369 23.4341L5.87622 24.1069C4.93187 24.5784 5.26741 26.0016 6.32294 26.0016L12.2053 26.0016C12.247 26.0029 12.289 26.0035 12.3311 26.0035L20.0366 26.0035C23.3503 26.0035 26.0366 23.3172 26.0366 20.0035L26.0366 17.4419C26.0366 14.1282 23.3503 11.4419 20.0366 11.4419L14.3311 11.4419C12.0611 11.4419 10.0856 12.7024 9.06629 14.5616ZM16.5169 14.4709L16.5169 15.671L13.4099 15.671Q12.9278 15.6494 12.7002 15.8796Q12.4594 16.1232 12.5037 16.6488L12.5037 20.249Q12.4786 20.9476 12.8044 21.2094Q13.0383 21.3973 13.4531 21.3602L16.5169 21.3602L16.5169 23.8047C16.5169 24.1307 16.7326 24.3085 17.1642 24.3381C17.5669 24.3085 17.7827 24.1307 17.8114 23.8047L17.8114 21.3602L20.9616 21.3602C21.5945 21.4194 21.8965 21.0787 21.8677 20.3379L21.8677 16.6044C21.8965 15.9821 21.6088 15.671 21.0047 15.671L17.8114 15.671L17.8114 14.4265C17.7827 14.1006 17.5525 13.9376 17.121 13.9376Q16.5169 13.982 16.5169 14.4709ZM16.5169 20.0712L14.1004 20.0712C13.8702 20.1008 13.7695 20.012 13.7983 19.8045L13.7983 17.2711C13.7695 17.0637 13.8702 16.96 14.1004 16.96L16.5169 16.96L16.5169 20.0712ZM20.5732 17.2711L20.5732 19.849Q20.5732 19.984 20.5068 20.0393Q20.4421 20.0932 20.3143 20.0712L17.8114 20.0712L17.8114 16.96L20.3143 16.96Q20.5732 16.96 20.5732 17.2711Z" fill-rule="evenodd" transform="matrix(1 0 0 1 0.000263214 -6.10352e-05)" fill="url(#linearGradient0:0:0)"/>
</svg>
