
<svg mexport="1" xmlns="http://www.w3.org/2000/svg" xmlns:xlink="http://www.w3.org/1999/xlink" width="26" height="24.8745" viewBox="0 0 26 24.8745">
	<defs>
		<linearGradient id="linearGradient0:0:0" gradientTransform="matrix(0 24.8745 -26 0 26 0)" gradientUnits="userSpaceOnUse" x1="0" y1="0.5" x2="1" y2="0.5">
			<stop offset="0" stop-color="rgb(254, 213, 129)"/>
			<stop offset="1" stop-color="rgb(255, 242, 202)"/>
		</linearGradient>
	</defs>
	<path d="M10.7051 0.634601C9.85899 -0.211534 8.48713 -0.211534 7.641 0.634602C6.89522 1.38038 6.80677 2.53456 7.37563 3.37721C7.24156 3.39218 7.03321 3.42279 6.75055 3.46904C3.39719 4.01783 0.780372 6.66657 0.272273 10.0263L0.225019 10.3576Q0 12.0336 0 14.1025Q0 16.382 0.273168 18.1485L0.304541 18.3359C0.865254 21.4452 3.30974 23.8843 6.43572 24.4281L6.65229 24.4644C6.93505 24.5098 7.19381 24.5433 7.42857 24.565C8.93579 24.7045 10.7995 24.8746 13 24.8746C15.1547 24.8746 17.0146 24.6988 18.5714 24.565C18.921 24.535 19.34 24.48 19.8286 24.3999C23.0063 23.8795 25.4492 21.3077 25.8058 18.1075L25.8395 17.7863Q26 16.159 26 14.1025C26 12.5887 25.9348 11.2386 25.8044 10.0522C25.7667 9.70922 25.6024 9.14571 25.3115 8.36165C24.2603 5.52788 21.6466 3.5734 18.6323 3.36536C19.1924 2.52376 19.1013 1.37689 18.359 0.634602C17.5129 -0.211534 16.141 -0.211534 15.2949 0.634601L13.297 2.63252C13.0995 2.80649 12.9022 2.80716 12.7051 2.63453L10.7051 0.634601ZM9.37147 11.8793C9.51186 10.3709 10.8134 9.26476 12.2779 9.41141C12.5705 9.44072 12.8564 9.51981 13.1239 9.64549C13.6719 9.90291 14.2039 10.1861 14.7198 10.4951C15.0651 10.7019 15.4035 10.9205 15.7404 11.1543L16.2306 11.5068C17.4162 12.389 17.6886 14.0962 16.8384 15.3258C16.6678 15.5726 16.4587 15.7885 16.2197 15.9647C15.7393 16.319 15.2394 16.6517 14.7198 16.9629C14.372 17.1712 14.0214 17.3663 13.6622 17.5513L13.1317 17.8136C11.7941 18.4483 10.2088 17.8397 9.59849 16.4555C9.47674 16.1794 9.40019 15.8844 9.37196 15.5824C9.31446 14.9674 9.28571 14.3496 9.28571 13.729C9.28571 13.4534 9.29137 13.1788 9.30277 12.9034L9.37147 11.8793Z" fill-rule="evenodd" transform="matrix(1 0 0 1 0 -1.90735e-05)" fill="url(#linearGradient0:0:0)"/>
</svg>
