
<svg mexport="1" xmlns="http://www.w3.org/2000/svg" xmlns:xlink="http://www.w3.org/1999/xlink" width="28" height="23.0177" viewBox="0 0 28 23.0177">
	<defs>
		<linearGradient id="linearGradient0:0:0" gradientTransform="matrix(0 23.0177 -28 0 28 0)" gradientUnits="userSpaceOnUse" x1="0" y1="0.5" x2="1" y2="0.5">
			<stop offset="0" stop-color="rgb(254, 213, 129)"/>
			<stop offset="1" stop-color="rgb(255, 242, 202)"/>
		</linearGradient>
	</defs>
	<path d="M1.00702 0.705221C0.148504 1.09015 -0.235408 2.09817 0.149525 2.95668L7.50323 19.3576C8.90231 22.4779 12.5661 23.8733 15.6864 22.4742L16.0681 22.3031C17.6283 21.6036 18.326 19.7717 17.6264 18.2115L11.5832 4.73326C9.77495 0.700426 5.04748 -1.10641 1.01464 0.701801L1.00702 0.705221ZM27.5943 4.90409C28.3066 3.87218 28.0568 2.45933 27.0338 1.73427L27.0268 1.72929C23.6727 -0.64802 19.0335 0.148809 16.6562 3.50291L15.781 4.73773C14.9887 5.85555 14.858 7.31283 15.4388 8.55378L18.3794 14.837C18.8016 15.7391 20.0435 15.8427 20.6094 15.023L27.5943 4.90409Z" fill-rule="evenodd" transform="matrix(1 0 0 1 0 -6.48499e-05)" fill="url(#linearGradient0:0:0)"/>
</svg>
